<svg viewBox="0 0 24 24" fill="none" xmlns="http://www.w3.org/2000/svg"><g id="SVGRepo_bgCarrier" stroke-width="0"></g><g id="SVGRepo_tracerCarrier" stroke-linecap="round" stroke-linejoin="round"></g><g id="SVGRepo_iconCarrier"> <path fill-rule="evenodd" clip-rule="evenodd" d="M8.38358 3C8.75808 3 9.06166 3.31153 9.06166 3.69582V3.92169C9.10586 3.91015 9.15023 3.89901 9.19476 3.88829C11.0399 3.44416 12.9601 3.44416 14.8052 3.88829C14.8498 3.89901 14.8941 3.91014 14.9383 3.92169V3.69582C14.9383 3.31153 15.2419 3 15.6164 3C15.9909 3 16.2945 3.31153 16.2945 3.69582V4.429C17.8965 5.22313 19.1631 6.60338 19.8362 8.3048C19.9755 8.65668 20.0893 9.0222 20.1754 9.39896C20.6082 11.2924 20.6082 13.2628 20.1754 15.1562C19.5504 17.8905 17.4698 20.0255 14.8052 20.6669C12.9601 21.111 11.0399 21.111 9.19476 20.6669C6.53017 20.0255 4.44963 17.8906 3.82461 15.1562C3.3918 13.2628 3.3918 11.2924 3.82461 9.39895C3.91073 9.0222 4.02453 8.65668 4.16376 8.3048C4.83694 6.60339 6.10353 5.22314 7.70551 4.42901V3.69582C7.70551 3.31153 8.00909 3 8.38358 3ZM7.70552 6.01905C6.97894 6.49241 6.3623 7.12516 5.90101 7.87074H18.099C17.6377 7.12515 17.0211 6.49241 16.2945 6.01905C16.2925 6.40158 15.9897 6.71104 15.6164 6.71104C15.2419 6.71104 14.9383 6.39951 14.9383 6.01522V5.36868C14.7932 5.32117 14.6455 5.27925 14.4955 5.24315C12.8541 4.84806 11.1459 4.84806 9.50447 5.24315C9.35451 5.27925 9.20683 5.32117 9.06166 5.36868V6.01522C9.06166 6.39951 8.75808 6.71104 8.38358 6.71104C8.01034 6.71104 7.70753 6.40158 7.70552 6.01905ZM13.8977 12.8519C13.8977 13.3946 13.6699 13.7954 13.3037 14.0626C13.8082 14.3715 14.093 14.8809 14.093 15.4737C14.093 16.5508 13.3118 17.2188 12.0506 17.2188C10.7812 17.2188 10.0082 16.5508 10.0082 15.4737C10.0082 14.8809 10.293 14.3715 10.7894 14.0626C10.4314 13.7954 10.1954 13.3946 10.1954 12.8519C10.1954 11.7246 11.0498 11.1402 12.0506 11.1402C13.0514 11.1402 13.8977 11.7246 13.8977 12.8519ZM12.7829 12.9103C12.7829 12.4761 12.4737 12.2256 12.0506 12.2256C11.6275 12.2256 11.3183 12.4761 11.3183 12.9103C11.3183 13.3362 11.6275 13.6034 12.0506 13.6034C12.4737 13.6034 12.7829 13.3362 12.7829 12.9103ZM11.123 15.3234C11.123 15.8495 11.5136 16.1334 12.0506 16.1334C12.5876 16.1334 12.9782 15.8495 12.9782 15.3234C12.9782 14.8057 12.5876 14.5218 12.0506 14.5218C11.5136 14.5218 11.123 14.8057 11.123 15.3234Z" fill="#7d7e80"></path> </g></svg>